<mxfile host="app.diagrams.net" modified="2023-09-19T02:23:15.551Z" agent="Mozilla/5.0 (Windows NT 10.0; Win64; x64) AppleWebKit/537.36 (KHTML, like Gecko) Chrome/116.0.0.0 Safari/537.36" etag="mUZjGBDAn99Pq3T3VczU" version="21.7.5" type="device">
  <diagram id="C5RBs43oDa-KdzZeNtuy" name="Page-1">
    <mxGraphModel dx="1035" dy="515" grid="1" gridSize="10" guides="1" tooltips="1" connect="1" arrows="1" fold="1" page="1" pageScale="1" pageWidth="827" pageHeight="1169" math="0" shadow="0">
      <root>
        <mxCell id="WIyWlLk6GJQsqaUBKTNV-0" />
        <mxCell id="WIyWlLk6GJQsqaUBKTNV-1" parent="WIyWlLk6GJQsqaUBKTNV-0" />
        <mxCell id="zop-0acBz6GT6559ApUB-15" style="edgeStyle=orthogonalEdgeStyle;rounded=0;orthogonalLoop=1;jettySize=auto;html=1;" edge="1" parent="WIyWlLk6GJQsqaUBKTNV-1" source="zop-0acBz6GT6559ApUB-1" target="zop-0acBz6GT6559ApUB-2">
          <mxGeometry relative="1" as="geometry" />
        </mxCell>
        <mxCell id="zop-0acBz6GT6559ApUB-1" value="start" style="strokeWidth=2;html=1;shape=mxgraph.flowchart.terminator;whiteSpace=wrap;" vertex="1" parent="WIyWlLk6GJQsqaUBKTNV-1">
          <mxGeometry x="160" y="110" width="100" height="60" as="geometry" />
        </mxCell>
        <mxCell id="zop-0acBz6GT6559ApUB-16" style="edgeStyle=orthogonalEdgeStyle;rounded=0;orthogonalLoop=1;jettySize=auto;html=1;entryX=0.5;entryY=0;entryDx=0;entryDy=0;entryPerimeter=0;" edge="1" parent="WIyWlLk6GJQsqaUBKTNV-1" source="zop-0acBz6GT6559ApUB-2" target="zop-0acBz6GT6559ApUB-3">
          <mxGeometry relative="1" as="geometry" />
        </mxCell>
        <mxCell id="zop-0acBz6GT6559ApUB-2" value="input n" style="shape=parallelogram;html=1;strokeWidth=2;perimeter=parallelogramPerimeter;whiteSpace=wrap;rounded=1;arcSize=12;size=0.23;" vertex="1" parent="WIyWlLk6GJQsqaUBKTNV-1">
          <mxGeometry x="135" y="220" width="150" height="60" as="geometry" />
        </mxCell>
        <mxCell id="zop-0acBz6GT6559ApUB-17" style="edgeStyle=orthogonalEdgeStyle;rounded=0;orthogonalLoop=1;jettySize=auto;html=1;entryX=0.5;entryY=0;entryDx=0;entryDy=0;" edge="1" parent="WIyWlLk6GJQsqaUBKTNV-1" source="zop-0acBz6GT6559ApUB-3" target="zop-0acBz6GT6559ApUB-5">
          <mxGeometry relative="1" as="geometry" />
        </mxCell>
        <mxCell id="zop-0acBz6GT6559ApUB-45" value="true" style="edgeLabel;html=1;align=center;verticalAlign=middle;resizable=0;points=[];" vertex="1" connectable="0" parent="zop-0acBz6GT6559ApUB-17">
          <mxGeometry x="-0.662" y="-1" relative="1" as="geometry">
            <mxPoint as="offset" />
          </mxGeometry>
        </mxCell>
        <mxCell id="zop-0acBz6GT6559ApUB-18" style="edgeStyle=orthogonalEdgeStyle;rounded=0;orthogonalLoop=1;jettySize=auto;html=1;entryX=0.5;entryY=0;entryDx=0;entryDy=0;" edge="1" parent="WIyWlLk6GJQsqaUBKTNV-1" source="zop-0acBz6GT6559ApUB-3" target="zop-0acBz6GT6559ApUB-11">
          <mxGeometry relative="1" as="geometry" />
        </mxCell>
        <mxCell id="zop-0acBz6GT6559ApUB-46" value="false" style="edgeLabel;html=1;align=center;verticalAlign=middle;resizable=0;points=[];" vertex="1" connectable="0" parent="zop-0acBz6GT6559ApUB-18">
          <mxGeometry x="-0.2941" y="2" relative="1" as="geometry">
            <mxPoint as="offset" />
          </mxGeometry>
        </mxCell>
        <mxCell id="zop-0acBz6GT6559ApUB-3" value="n ≤ 1 ?" style="strokeWidth=2;html=1;shape=mxgraph.flowchart.decision;whiteSpace=wrap;" vertex="1" parent="WIyWlLk6GJQsqaUBKTNV-1">
          <mxGeometry x="160" y="320" width="100" height="100" as="geometry" />
        </mxCell>
        <mxCell id="zop-0acBz6GT6559ApUB-39" style="edgeStyle=orthogonalEdgeStyle;rounded=0;orthogonalLoop=1;jettySize=auto;html=1;entryX=1;entryY=0.5;entryDx=0;entryDy=0;entryPerimeter=0;" edge="1" parent="WIyWlLk6GJQsqaUBKTNV-1" source="zop-0acBz6GT6559ApUB-5" target="zop-0acBz6GT6559ApUB-14">
          <mxGeometry relative="1" as="geometry">
            <Array as="points">
              <mxPoint x="490" y="1010" />
            </Array>
          </mxGeometry>
        </mxCell>
        <mxCell id="zop-0acBz6GT6559ApUB-5" value="return false" style="shape=parallelogram;html=1;strokeWidth=2;perimeter=parallelogramPerimeter;whiteSpace=wrap;rounded=1;arcSize=12;size=0.23;" vertex="1" parent="WIyWlLk6GJQsqaUBKTNV-1">
          <mxGeometry x="420" y="810" width="140" height="60" as="geometry" />
        </mxCell>
        <mxCell id="zop-0acBz6GT6559ApUB-30" style="edgeStyle=orthogonalEdgeStyle;rounded=0;orthogonalLoop=1;jettySize=auto;html=1;" edge="1" parent="WIyWlLk6GJQsqaUBKTNV-1" source="zop-0acBz6GT6559ApUB-11" target="zop-0acBz6GT6559ApUB-28">
          <mxGeometry relative="1" as="geometry" />
        </mxCell>
        <mxCell id="zop-0acBz6GT6559ApUB-37" style="edgeStyle=orthogonalEdgeStyle;rounded=0;orthogonalLoop=1;jettySize=auto;html=1;entryX=0;entryY=0.5;entryDx=0;entryDy=0;exitX=0;exitY=0.5;exitDx=0;exitDy=0;exitPerimeter=0;" edge="1" parent="WIyWlLk6GJQsqaUBKTNV-1" source="zop-0acBz6GT6559ApUB-28" target="zop-0acBz6GT6559ApUB-13">
          <mxGeometry relative="1" as="geometry">
            <Array as="points">
              <mxPoint x="70" y="620" />
              <mxPoint x="70" y="910" />
            </Array>
          </mxGeometry>
        </mxCell>
        <mxCell id="zop-0acBz6GT6559ApUB-41" value="false" style="edgeLabel;html=1;align=center;verticalAlign=middle;resizable=0;points=[];" vertex="1" connectable="0" parent="zop-0acBz6GT6559ApUB-37">
          <mxGeometry x="-0.8084" y="1" relative="1" as="geometry">
            <mxPoint as="offset" />
          </mxGeometry>
        </mxCell>
        <mxCell id="zop-0acBz6GT6559ApUB-11" value="i = 2" style="rounded=1;whiteSpace=wrap;html=1;absoluteArcSize=1;arcSize=14;strokeWidth=2;" vertex="1" parent="WIyWlLk6GJQsqaUBKTNV-1">
          <mxGeometry x="160" y="467.5" width="100" height="55" as="geometry" />
        </mxCell>
        <mxCell id="zop-0acBz6GT6559ApUB-38" style="edgeStyle=orthogonalEdgeStyle;rounded=0;orthogonalLoop=1;jettySize=auto;html=1;entryX=0.5;entryY=0;entryDx=0;entryDy=0;entryPerimeter=0;" edge="1" parent="WIyWlLk6GJQsqaUBKTNV-1" source="zop-0acBz6GT6559ApUB-13" target="zop-0acBz6GT6559ApUB-14">
          <mxGeometry relative="1" as="geometry" />
        </mxCell>
        <mxCell id="zop-0acBz6GT6559ApUB-13" value="return true" style="shape=parallelogram;html=1;strokeWidth=2;perimeter=parallelogramPerimeter;whiteSpace=wrap;rounded=1;arcSize=12;size=0.23;" vertex="1" parent="WIyWlLk6GJQsqaUBKTNV-1">
          <mxGeometry x="132.5" y="880" width="155" height="60" as="geometry" />
        </mxCell>
        <mxCell id="zop-0acBz6GT6559ApUB-14" value="end" style="strokeWidth=2;html=1;shape=mxgraph.flowchart.terminator;whiteSpace=wrap;" vertex="1" parent="WIyWlLk6GJQsqaUBKTNV-1">
          <mxGeometry x="160" y="980" width="100" height="60" as="geometry" />
        </mxCell>
        <mxCell id="zop-0acBz6GT6559ApUB-32" style="edgeStyle=orthogonalEdgeStyle;rounded=0;orthogonalLoop=1;jettySize=auto;html=1;entryX=1;entryY=0.5;entryDx=0;entryDy=0;" edge="1" parent="WIyWlLk6GJQsqaUBKTNV-1" source="zop-0acBz6GT6559ApUB-23" target="zop-0acBz6GT6559ApUB-29">
          <mxGeometry relative="1" as="geometry">
            <Array as="points">
              <mxPoint x="410" y="760" />
              <mxPoint x="410" y="620" />
            </Array>
          </mxGeometry>
        </mxCell>
        <mxCell id="zop-0acBz6GT6559ApUB-43" value="false" style="edgeLabel;html=1;align=center;verticalAlign=middle;resizable=0;points=[];" vertex="1" connectable="0" parent="zop-0acBz6GT6559ApUB-32">
          <mxGeometry x="-0.431" relative="1" as="geometry">
            <mxPoint as="offset" />
          </mxGeometry>
        </mxCell>
        <mxCell id="zop-0acBz6GT6559ApUB-34" style="edgeStyle=orthogonalEdgeStyle;rounded=0;orthogonalLoop=1;jettySize=auto;html=1;entryX=0;entryY=0.5;entryDx=0;entryDy=0;" edge="1" parent="WIyWlLk6GJQsqaUBKTNV-1" source="zop-0acBz6GT6559ApUB-23" target="zop-0acBz6GT6559ApUB-5">
          <mxGeometry relative="1" as="geometry">
            <Array as="points">
              <mxPoint x="210" y="840" />
            </Array>
          </mxGeometry>
        </mxCell>
        <mxCell id="zop-0acBz6GT6559ApUB-44" value="true" style="edgeLabel;html=1;align=center;verticalAlign=middle;resizable=0;points=[];" vertex="1" connectable="0" parent="zop-0acBz6GT6559ApUB-34">
          <mxGeometry x="0.1213" y="1" relative="1" as="geometry">
            <mxPoint as="offset" />
          </mxGeometry>
        </mxCell>
        <mxCell id="zop-0acBz6GT6559ApUB-23" value="n % i == 0 ?" style="strokeWidth=2;html=1;shape=mxgraph.flowchart.decision;whiteSpace=wrap;" vertex="1" parent="WIyWlLk6GJQsqaUBKTNV-1">
          <mxGeometry x="160" y="710" width="100" height="100" as="geometry" />
        </mxCell>
        <mxCell id="zop-0acBz6GT6559ApUB-31" style="edgeStyle=orthogonalEdgeStyle;rounded=0;orthogonalLoop=1;jettySize=auto;html=1;entryX=0.5;entryY=0;entryDx=0;entryDy=0;entryPerimeter=0;" edge="1" parent="WIyWlLk6GJQsqaUBKTNV-1" source="zop-0acBz6GT6559ApUB-28" target="zop-0acBz6GT6559ApUB-23">
          <mxGeometry relative="1" as="geometry" />
        </mxCell>
        <mxCell id="zop-0acBz6GT6559ApUB-42" value="true" style="edgeLabel;html=1;align=center;verticalAlign=middle;resizable=0;points=[];" vertex="1" connectable="0" parent="zop-0acBz6GT6559ApUB-31">
          <mxGeometry x="-0.4265" y="2" relative="1" as="geometry">
            <mxPoint as="offset" />
          </mxGeometry>
        </mxCell>
        <mxCell id="zop-0acBz6GT6559ApUB-28" value="i ≤&amp;nbsp;√n" style="strokeWidth=2;html=1;shape=mxgraph.flowchart.decision;whiteSpace=wrap;" vertex="1" parent="WIyWlLk6GJQsqaUBKTNV-1">
          <mxGeometry x="160" y="570" width="100" height="100" as="geometry" />
        </mxCell>
        <mxCell id="zop-0acBz6GT6559ApUB-40" style="edgeStyle=orthogonalEdgeStyle;rounded=0;orthogonalLoop=1;jettySize=auto;html=1;entryX=1;entryY=0.5;entryDx=0;entryDy=0;entryPerimeter=0;" edge="1" parent="WIyWlLk6GJQsqaUBKTNV-1" source="zop-0acBz6GT6559ApUB-29" target="zop-0acBz6GT6559ApUB-28">
          <mxGeometry relative="1" as="geometry" />
        </mxCell>
        <mxCell id="zop-0acBz6GT6559ApUB-29" value="i++" style="rounded=1;whiteSpace=wrap;html=1;absoluteArcSize=1;arcSize=14;strokeWidth=2;" vertex="1" parent="WIyWlLk6GJQsqaUBKTNV-1">
          <mxGeometry x="310" y="600" width="50" height="40" as="geometry" />
        </mxCell>
      </root>
    </mxGraphModel>
  </diagram>
</mxfile>
